<?xml version="1.0" encoding="UTF-8" standalone="no"?>
<!DOCTYPE svg PUBLIC "-//W3C//DTD SVG 1.1//EN"
 "http://www.w3.org/Graphics/SVG/1.1/DTD/svg11.dtd">
<!-- Generated by graphviz version 2.40.1 (20161225.0304)
 -->
<!-- Title: %3 Pages: 1 -->
<svg width="1573pt" height="210pt"
 viewBox="0.00 0.00 1573.00 210.00" xmlns="http://www.w3.org/2000/svg" xmlns:xlink="http://www.w3.org/1999/xlink">
<g id="graph0" class="graph" transform="scale(1 1) rotate(0) translate(4 206)">
<title>%3</title>
<polygon fill="#ffffff" stroke="transparent" points="-4,4 -4,-206 1569,-206 1569,4 -4,4"/>
<!-- 4499991120 -->
<g id="node1" class="node">
<title>4499991120</title>
<polygon fill="none" stroke="#000000" points="672,-82.5 672,-118.5 935,-118.5 935,-82.5 672,-82.5"/>
<text text-anchor="middle" x="719" y="-96.8" font-family="Times,serif" font-size="14.00" fill="#000000">x1w1 + x2w2</text>
<polyline fill="none" stroke="#000000" points="766,-82.5 766,-118.5 "/>
<text text-anchor="middle" x="809" y="-96.8" font-family="Times,serif" font-size="14.00" fill="#000000">data &#45;6.0000</text>
<polyline fill="none" stroke="#000000" points="852,-82.5 852,-118.5 "/>
<text text-anchor="middle" x="893.5" y="-96.8" font-family="Times,serif" font-size="14.00" fill="#000000">grad 0.5000</text>
</g>
<!-- 4499990896+ -->
<g id="node12" class="node">
<title>4499990896+</title>
<ellipse fill="none" stroke="#000000" cx="998" cy="-127.5" rx="27" ry="18"/>
<text text-anchor="middle" x="998" y="-123.8" font-family="Times,serif" font-size="14.00" fill="#000000">+</text>
</g>
<!-- 4499991120&#45;&gt;4499990896+ -->
<g id="edge14" class="edge">
<title>4499991120&#45;&gt;4499990896+</title>
<path fill="none" stroke="#000000" d="M933.2343,-118.5094C943.2295,-119.8969 952.7075,-121.2126 961.1736,-122.3879"/>
<polygon fill="#000000" stroke="#000000" points="960.9326,-125.8879 971.3189,-123.7962 961.8952,-118.9544 960.9326,-125.8879"/>
</g>
<!-- 4499991120+ -->
<g id="node2" class="node">
<title>4499991120+</title>
<ellipse fill="none" stroke="#000000" cx="609" cy="-100.5" rx="27" ry="18"/>
<text text-anchor="middle" x="609" y="-96.8" font-family="Times,serif" font-size="14.00" fill="#000000">+</text>
</g>
<!-- 4499991120+&#45;&gt;4499991120 -->
<g id="edge1" class="edge">
<title>4499991120+&#45;&gt;4499991120</title>
<path fill="none" stroke="#000000" d="M636.0444,-100.5C643.559,-100.5 652.2712,-100.5 661.6955,-100.5"/>
<polygon fill="#000000" stroke="#000000" points="661.7542,-104.0001 671.7542,-100.5 661.7541,-97.0001 661.7542,-104.0001"/>
</g>
<!-- 4500246096 -->
<g id="node3" class="node">
<title>4500246096</title>
<polygon fill="none" stroke="#000000" points="709,-137.5 709,-173.5 898,-173.5 898,-137.5 709,-137.5"/>
<text text-anchor="middle" x="721" y="-151.8" font-family="Times,serif" font-size="14.00" fill="#000000">b</text>
<polyline fill="none" stroke="#000000" points="733,-137.5 733,-173.5 "/>
<text text-anchor="middle" x="774" y="-151.8" font-family="Times,serif" font-size="14.00" fill="#000000">data 6.8814</text>
<polyline fill="none" stroke="#000000" points="815,-137.5 815,-173.5 "/>
<text text-anchor="middle" x="856.5" y="-151.8" font-family="Times,serif" font-size="14.00" fill="#000000">grad 0.5000</text>
</g>
<!-- 4500246096&#45;&gt;4499990896+ -->
<g id="edge11" class="edge">
<title>4500246096&#45;&gt;4499990896+</title>
<path fill="none" stroke="#000000" d="M898.1861,-141.8691C920.6374,-138.637 943.271,-135.3787 961.2962,-132.7838"/>
<polygon fill="#000000" stroke="#000000" points="961.9412,-136.2272 971.3404,-131.3379 960.9437,-129.2986 961.9412,-136.2272"/>
</g>
<!-- 4498734160 -->
<g id="node4" class="node">
<title>4498734160</title>
<polygon fill="none" stroke="#000000" points="331,-110.5 331,-146.5 544,-146.5 544,-110.5 331,-110.5"/>
<text text-anchor="middle" x="355" y="-124.8" font-family="Times,serif" font-size="14.00" fill="#000000">x2w2</text>
<polyline fill="none" stroke="#000000" points="379,-110.5 379,-146.5 "/>
<text text-anchor="middle" x="420" y="-124.8" font-family="Times,serif" font-size="14.00" fill="#000000">data 0.0000</text>
<polyline fill="none" stroke="#000000" points="461,-110.5 461,-146.5 "/>
<text text-anchor="middle" x="502.5" y="-124.8" font-family="Times,serif" font-size="14.00" fill="#000000">grad 0.5000</text>
</g>
<!-- 4498734160&#45;&gt;4499991120+ -->
<g id="edge13" class="edge">
<title>4498734160&#45;&gt;4499991120+</title>
<path fill="none" stroke="#000000" d="M544.1632,-111.0856C554.2361,-109.4411 563.8989,-107.8634 572.5483,-106.4513"/>
<polygon fill="#000000" stroke="#000000" points="573.2502,-109.8831 582.5555,-104.8175 572.1222,-102.9746 573.2502,-109.8831"/>
</g>
<!-- 4498734160* -->
<g id="node5" class="node">
<title>4498734160*</title>
<ellipse fill="none" stroke="#000000" cx="266" cy="-128.5" rx="27" ry="18"/>
<text text-anchor="middle" x="266" y="-124.8" font-family="Times,serif" font-size="14.00" fill="#000000">*</text>
</g>
<!-- 4498734160*&#45;&gt;4498734160 -->
<g id="edge2" class="edge">
<title>4498734160*&#45;&gt;4498734160</title>
<path fill="none" stroke="#000000" d="M293.1747,-128.5C301.2502,-128.5 310.6533,-128.5 320.7154,-128.5"/>
<polygon fill="#000000" stroke="#000000" points="320.9725,-132.0001 330.9724,-128.5 320.9724,-125.0001 320.9725,-132.0001"/>
</g>
<!-- 4498633456 -->
<g id="node6" class="node">
<title>4498633456</title>
<polygon fill="none" stroke="#000000" points="1,-55.5 1,-91.5 202,-91.5 202,-55.5 1,-55.5"/>
<text text-anchor="middle" x="16.5" y="-69.8" font-family="Times,serif" font-size="14.00" fill="#000000">x1</text>
<polyline fill="none" stroke="#000000" points="32,-55.5 32,-91.5 "/>
<text text-anchor="middle" x="73" y="-69.8" font-family="Times,serif" font-size="14.00" fill="#000000">data 2.0000</text>
<polyline fill="none" stroke="#000000" points="114,-55.5 114,-91.5 "/>
<text text-anchor="middle" x="158" y="-69.8" font-family="Times,serif" font-size="14.00" fill="#000000">grad &#45;1.5000</text>
</g>
<!-- 4498734400* -->
<g id="node9" class="node">
<title>4498734400*</title>
<ellipse fill="none" stroke="#000000" cx="266" cy="-73.5" rx="27" ry="18"/>
<text text-anchor="middle" x="266" y="-69.8" font-family="Times,serif" font-size="14.00" fill="#000000">*</text>
</g>
<!-- 4498633456&#45;&gt;4498734400* -->
<g id="edge12" class="edge">
<title>4498633456&#45;&gt;4498734400*</title>
<path fill="none" stroke="#000000" d="M202.4,-73.5C211.6484,-73.5 220.5648,-73.5 228.6471,-73.5"/>
<polygon fill="#000000" stroke="#000000" points="228.7497,-77.0001 238.7497,-73.5 228.7496,-70.0001 228.7497,-77.0001"/>
</g>
<!-- 4496785152 -->
<g id="node7" class="node">
<title>4496785152</title>
<polygon fill="none" stroke="#000000" points="3.5,-165.5 3.5,-201.5 199.5,-201.5 199.5,-165.5 3.5,-165.5"/>
<text text-anchor="middle" x="19" y="-179.8" font-family="Times,serif" font-size="14.00" fill="#000000">x2</text>
<polyline fill="none" stroke="#000000" points="34.5,-165.5 34.5,-201.5 "/>
<text text-anchor="middle" x="75.5" y="-179.8" font-family="Times,serif" font-size="14.00" fill="#000000">data 0.0000</text>
<polyline fill="none" stroke="#000000" points="116.5,-165.5 116.5,-201.5 "/>
<text text-anchor="middle" x="158" y="-179.8" font-family="Times,serif" font-size="14.00" fill="#000000">grad 0.5000</text>
</g>
<!-- 4496785152&#45;&gt;4498734160* -->
<g id="edge6" class="edge">
<title>4496785152&#45;&gt;4498734160*</title>
<path fill="none" stroke="#000000" d="M174.8304,-165.4776C184.3783,-162.6983 193.9721,-159.6844 203,-156.5 213.6067,-152.7587 224.9151,-147.9913 234.981,-143.4553"/>
<polygon fill="#000000" stroke="#000000" points="236.5667,-146.5785 244.1876,-139.2182 233.6402,-140.2196 236.5667,-146.5785"/>
</g>
<!-- 4498734400 -->
<g id="node8" class="node">
<title>4498734400</title>
<polygon fill="none" stroke="#000000" points="329,-55.5 329,-91.5 546,-91.5 546,-55.5 329,-55.5"/>
<text text-anchor="middle" x="353" y="-69.8" font-family="Times,serif" font-size="14.00" fill="#000000">x1w1</text>
<polyline fill="none" stroke="#000000" points="377,-55.5 377,-91.5 "/>
<text text-anchor="middle" x="420" y="-69.8" font-family="Times,serif" font-size="14.00" fill="#000000">data &#45;6.0000</text>
<polyline fill="none" stroke="#000000" points="463,-55.5 463,-91.5 "/>
<text text-anchor="middle" x="504.5" y="-69.8" font-family="Times,serif" font-size="14.00" fill="#000000">grad 0.5000</text>
</g>
<!-- 4498734400&#45;&gt;4499991120+ -->
<g id="edge7" class="edge">
<title>4498734400&#45;&gt;4499991120+</title>
<path fill="none" stroke="#000000" d="M546.1136,-90.5995C555.4502,-92.0694 564.3967,-93.4779 572.4646,-94.7481"/>
<polygon fill="#000000" stroke="#000000" points="572.1006,-98.2338 582.5233,-96.3317 573.1893,-91.319 572.1006,-98.2338"/>
</g>
<!-- 4498734400*&#45;&gt;4498734400 -->
<g id="edge3" class="edge">
<title>4498734400*&#45;&gt;4498734400</title>
<path fill="none" stroke="#000000" d="M293.1747,-73.5C300.6657,-73.5 309.2992,-73.5 318.5414,-73.5"/>
<polygon fill="#000000" stroke="#000000" points="318.7839,-77.0001 328.7839,-73.5 318.7839,-70.0001 318.7839,-77.0001"/>
</g>
<!-- 4500245328 -->
<g id="node10" class="node">
<title>4500245328</title>
<polygon fill="none" stroke="#000000" points="2,-110.5 2,-146.5 201,-146.5 201,-110.5 2,-110.5"/>
<text text-anchor="middle" x="19" y="-124.8" font-family="Times,serif" font-size="14.00" fill="#000000">w2</text>
<polyline fill="none" stroke="#000000" points="36,-110.5 36,-146.5 "/>
<text text-anchor="middle" x="77" y="-124.8" font-family="Times,serif" font-size="14.00" fill="#000000">data 1.0000</text>
<polyline fill="none" stroke="#000000" points="118,-110.5 118,-146.5 "/>
<text text-anchor="middle" x="159.5" y="-124.8" font-family="Times,serif" font-size="14.00" fill="#000000">grad 0.0000</text>
</g>
<!-- 4500245328&#45;&gt;4498734160* -->
<g id="edge9" class="edge">
<title>4500245328&#45;&gt;4498734160*</title>
<path fill="none" stroke="#000000" d="M201.4574,-128.5C211.1075,-128.5 220.4163,-128.5 228.8176,-128.5"/>
<polygon fill="#000000" stroke="#000000" points="228.9312,-132.0001 238.9312,-128.5 228.9312,-125.0001 228.9312,-132.0001"/>
</g>
<!-- 4499990896 -->
<g id="node11" class="node">
<title>4499990896</title>
<polygon fill="none" stroke="#000000" points="1061,-109.5 1061,-145.5 1250,-145.5 1250,-109.5 1061,-109.5"/>
<text text-anchor="middle" x="1073" y="-123.8" font-family="Times,serif" font-size="14.00" fill="#000000">n</text>
<polyline fill="none" stroke="#000000" points="1085,-109.5 1085,-145.5 "/>
<text text-anchor="middle" x="1126" y="-123.8" font-family="Times,serif" font-size="14.00" fill="#000000">data 0.8814</text>
<polyline fill="none" stroke="#000000" points="1167,-109.5 1167,-145.5 "/>
<text text-anchor="middle" x="1208.5" y="-123.8" font-family="Times,serif" font-size="14.00" fill="#000000">grad 0.5000</text>
</g>
<!-- 4498822512tanh -->
<g id="node15" class="node">
<title>4498822512tanh</title>
<ellipse fill="none" stroke="#000000" cx="1313" cy="-127.5" rx="27" ry="18"/>
<text text-anchor="middle" x="1313" y="-123.8" font-family="Times,serif" font-size="14.00" fill="#000000">tanh</text>
</g>
<!-- 4499990896&#45;&gt;4498822512tanh -->
<g id="edge8" class="edge">
<title>4499990896&#45;&gt;4498822512tanh</title>
<path fill="none" stroke="#000000" d="M1250.2993,-127.5C1259.1677,-127.5 1267.7525,-127.5 1275.5777,-127.5"/>
<polygon fill="#000000" stroke="#000000" points="1275.7328,-131.0001 1285.7328,-127.5 1275.7327,-124.0001 1275.7328,-131.0001"/>
</g>
<!-- 4499990896+&#45;&gt;4499990896 -->
<g id="edge4" class="edge">
<title>4499990896+&#45;&gt;4499990896</title>
<path fill="none" stroke="#000000" d="M1025.0752,-127.5C1032.6322,-127.5 1041.3259,-127.5 1050.562,-127.5"/>
<polygon fill="#000000" stroke="#000000" points="1050.7689,-131.0001 1060.7688,-127.5 1050.7688,-124.0001 1050.7689,-131.0001"/>
</g>
<!-- 4499232144 -->
<g id="node13" class="node">
<title>4499232144</title>
<polygon fill="none" stroke="#000000" points="0,-.5 0,-36.5 203,-36.5 203,-.5 0,-.5"/>
<text text-anchor="middle" x="17" y="-14.8" font-family="Times,serif" font-size="14.00" fill="#000000">w1</text>
<polyline fill="none" stroke="#000000" points="34,-.5 34,-36.5 "/>
<text text-anchor="middle" x="77" y="-14.8" font-family="Times,serif" font-size="14.00" fill="#000000">data &#45;3.0000</text>
<polyline fill="none" stroke="#000000" points="120,-.5 120,-36.5 "/>
<text text-anchor="middle" x="161.5" y="-14.8" font-family="Times,serif" font-size="14.00" fill="#000000">grad 1.0000</text>
</g>
<!-- 4499232144&#45;&gt;4498734400* -->
<g id="edge10" class="edge">
<title>4499232144&#45;&gt;4498734400*</title>
<path fill="none" stroke="#000000" d="M171.7741,-36.5476C182.3123,-39.6394 192.9942,-42.994 203,-46.5 213.4678,-50.1679 224.6649,-54.7442 234.6725,-59.0812"/>
<polygon fill="#000000" stroke="#000000" points="233.2785,-62.2917 243.8403,-63.1286 236.1056,-55.888 233.2785,-62.2917"/>
</g>
<!-- 4498822512 -->
<g id="node14" class="node">
<title>4498822512</title>
<polygon fill="none" stroke="#000000" points="1376,-109.5 1376,-145.5 1565,-145.5 1565,-109.5 1376,-109.5"/>
<text text-anchor="middle" x="1388" y="-123.8" font-family="Times,serif" font-size="14.00" fill="#000000">o</text>
<polyline fill="none" stroke="#000000" points="1400,-109.5 1400,-145.5 "/>
<text text-anchor="middle" x="1441" y="-123.8" font-family="Times,serif" font-size="14.00" fill="#000000">data 0.7071</text>
<polyline fill="none" stroke="#000000" points="1482,-109.5 1482,-145.5 "/>
<text text-anchor="middle" x="1523.5" y="-123.8" font-family="Times,serif" font-size="14.00" fill="#000000">grad 1.0000</text>
</g>
<!-- 4498822512tanh&#45;&gt;4498822512 -->
<g id="edge5" class="edge">
<title>4498822512tanh&#45;&gt;4498822512</title>
<path fill="none" stroke="#000000" d="M1340.0752,-127.5C1347.6322,-127.5 1356.3259,-127.5 1365.562,-127.5"/>
<polygon fill="#000000" stroke="#000000" points="1365.7689,-131.0001 1375.7688,-127.5 1365.7688,-124.0001 1365.7689,-131.0001"/>
</g>
</g>
</svg>
